<svg width="32" height="26" viewBox="0 0 32 26" fill="none" xmlns="http://www.w3.org/2000/svg">
<path d="M21.8579 20.0394C22.3779 20.3395 23.0469 20.162 23.3091 19.6221C26.4736 13.1075 24.4477 5.36872 18.5054 1.93781C12.563 -1.49304 4.84764 0.621891 0.788556 6.61976C0.45213 7.11683 0.632795 7.78492 1.15233 8.08497C1.67235 8.38508 2.33348 8.20325 2.67674 7.71112C6.08592 2.82709 12.436 1.12806 17.3389 3.9585C22.2412 6.78894 23.9448 13.1379 21.4199 18.5322C21.165 19.0757 21.3384 19.7393 21.8579 20.0394Z" fill="hsl(0 0 90 / 1)"/>
<path d="M10.1523 5.96064C9.63231 5.66053 8.96336 5.83802 8.70115 6.37793C5.5366 12.8925 7.56248 20.6313 13.5049 24.0622C19.4472 27.493 27.1626 25.3781 31.2217 19.3803C31.5581 18.8832 31.3774 18.2151 30.8579 17.915C30.3379 17.6149 29.6767 17.7968 29.3335 18.2889C25.9243 23.1729 19.5742 24.872 14.6714 22.0415C9.76902 19.2111 8.06541 12.8621 10.5903 7.46784C10.8452 6.92426 10.6719 6.26075 10.1523 5.96064Z" fill="hsl(0 0 90 / 1)"/>
<path d="M16 15C17.1045 15 18 14.1046 18 13C18 11.8955 17.1045 11 16 11C14.8955 11 14 11.8955 14 13C14 14.1046 14.8955 15 16 15Z" fill="hsl(0 0 90 / 1)"/>
</svg>
